<svg width="129" height="130" viewBox="0 0 129 130" fill="none" xmlns="http://www.w3.org/2000/svg">
<circle cx="64.5" cy="65" r="64.1529" fill="#D9D9D9"/>
<circle cx="40.174" cy="55.4852" r="17.6988" transform="rotate(-90 40.174 55.4852)" fill="#FFDF6F"/>
<circle cx="40.174" cy="55.4852" r="10.6695" transform="rotate(-90 40.174 55.4852)" fill="#BF0000"/>
<circle cx="88.826" cy="55.4852" r="17.6988" transform="rotate(-90 88.826 55.4852)" fill="#FFDF6F"/>
<circle cx="88.826" cy="55.4852" r="10.6695" transform="rotate(-90 88.826 55.4852)" fill="#BF0000"/>
<rect x="16.3642" y="2.89476" width="61.4443" height="24.711" rx="12.3555" transform="rotate(40.4043 16.3642 2.89476)" fill="black"/>
<rect width="61.4443" height="24.711" rx="12.3555" transform="matrix(-0.761489 0.648178 0.648178 0.761489 112.67 2.89476)" fill="black"/>
<path d="M53.3914 72.258C53.3914 69.3782 55.7259 67.0437 58.6056 67.0437H70.3944C73.2741 67.0437 75.6086 69.3782 75.6086 72.258V72.258C75.6086 75.1378 73.2741 77.4723 70.3944 77.4723H58.6056C55.7259 77.4723 53.3914 75.1378 53.3914 72.258V72.258Z" fill="#666464"/>
<path d="M53.3914 72.258C53.3914 69.3782 55.7259 67.0437 58.6056 67.0437H70.3944C73.2741 67.0437 75.6086 69.3782 75.6086 72.258V72.258C75.6086 75.1378 73.2741 77.4723 70.3944 77.4723H58.6056C55.7259 77.4723 53.3914 75.1378 53.3914 72.258V72.258Z" fill="#666464"/>
<path d="M53.3914 72.258C53.3914 69.3782 55.7259 67.0437 58.6056 67.0437H70.3944C73.2741 67.0437 75.6086 69.3782 75.6086 72.258V72.258C75.6086 75.1378 73.2741 77.4723 70.3944 77.4723H58.6056C55.7259 77.4723 53.3914 75.1378 53.3914 72.258V72.258Z" fill="#666464"/>
<rect x="44.4125" y="80.0334" width="40.175" height="40.175" rx="3" fill="#6B6B6B"/>
<rect x="50.6581" y="86.2789" width="27.6839" height="27.6839" rx="7" fill="#FF0000"/>
</svg>
