<svg width="129" height="148" viewBox="0 0 129 148" fill="none" xmlns="http://www.w3.org/2000/svg">
<circle cx="64.5" cy="83" r="64.1529" fill="#D9D9D9"/>
<circle cx="40.183" cy="63.0567" r="17.6988" transform="rotate(-90 40.183 63.0567)" fill="#FFDF6F"/>
<circle cx="40.183" cy="63.0567" r="10.6695" transform="rotate(-90 40.183 63.0567)" fill="#BF0000"/>
<circle cx="88.8349" cy="63.0567" r="17.6988" transform="rotate(-90 88.8349 63.0567)" fill="#FFDF6F"/>
<circle cx="88.8349" cy="63.0567" r="10.6695" transform="rotate(-90 88.8349 63.0567)" fill="#BF0000"/>
<rect x="16.3301" y="0.840454" width="61.4443" height="24.711" rx="12.3555" transform="rotate(40.4043 16.3301 0.840454)" fill="black"/>
<rect width="61.4443" height="24.711" rx="12.3555" transform="matrix(-0.761489 0.648178 0.648178 0.761489 112.636 0.840454)" fill="black"/>
<rect x="53.3914" y="80.7555" width="22.2173" height="10.4285" rx="5.21426" fill="#666464"/>
<rect x="53.3914" y="80.7555" width="22.2173" height="10.4285" rx="5.21426" fill="#666464"/>
<rect x="53.3914" y="80.7555" width="22.2173" height="10.4285" rx="5.21426" fill="#666464"/>
<rect x="44.4125" y="98.0334" width="40.175" height="40.175" rx="3" fill="#6B6B6B"/>
<rect x="50.6581" y="104.279" width="27.6839" height="27.6839" rx="7" fill="#FF0000"/>
</svg>
