<svg width="133" height="130" viewBox="0 0 133 130" fill="none" xmlns="http://www.w3.org/2000/svg">
<circle cx="66.5" cy="65" r="64.1529" fill="#D9D9D9"/>
<circle cx="42.1829" cy="53.5863" r="17.6988" transform="rotate(-60 42.1829 53.5863)" fill="#FFDF6F"/>
<circle cx="46.0882" cy="53.9769" r="10.6695" transform="rotate(-60 46.0882 53.9769)" fill="#292929"/>
<circle cx="90.817" cy="53.5863" r="17.6988" transform="rotate(-60 90.817 53.5863)" fill="#FFDF6F"/>
<circle cx="86.9117" cy="53.9769" r="10.6695" transform="rotate(-60 86.9117 53.9769)" fill="#292929"/>
<rect x="0.93219" y="33.5996" width="61.4443" height="24.711" rx="12.3555" transform="rotate(-30 0.93219 33.5996)" fill="black"/>
<rect width="61.4443" height="24.711" rx="12.3555" transform="matrix(-0.866025 -0.5 -0.5 0.866025 132.068 33.5996)" fill="black"/>
<rect x="55.3914" y="68.5517" width="22.2173" height="10.4285" rx="5.21426" fill="#666464"/>
<rect x="55.3914" y="68.5517" width="22.2173" height="10.4285" rx="5.21426" fill="#666464"/>
<rect x="55.3914" y="68.5517" width="22.2173" height="10.4285" rx="5.21426" fill="#666464"/>
<circle cx="66.64" cy="103.249" r="20.2717" fill="#976A6A"/>
</svg>
