<svg width="133" height="130" viewBox="0 0 133 130" fill="none" xmlns="http://www.w3.org/2000/svg">
<circle cx="66.5" cy="65" r="64.1529" fill="#D9D9D9"/>
<rect x="0.932129" y="33.5996" width="61.4443" height="24.711" rx="12.3555" transform="rotate(-30 0.932129 33.5996)" fill="black"/>
<rect width="61.4443" height="24.711" rx="12.3555" transform="matrix(-0.866025 -0.5 -0.5 0.866025 132.068 33.5996)" fill="black"/>
<circle cx="42.183" cy="61.8329" r="17.6988" transform="rotate(-60 42.183 61.8329)" fill="#FFDF6F"/>
<circle cx="46.0882" cy="61.8329" r="10.6695" transform="rotate(-60 46.0882 61.8329)" fill="#292929"/>
<circle cx="90.817" cy="61.8329" r="17.6988" transform="rotate(-60 90.817 61.8329)" fill="#FFDF6F"/>
<circle cx="86.9117" cy="61.8329" r="10.6695" transform="rotate(-60 86.9117 61.8329)" fill="#292929"/>
<rect x="55.3914" y="77.7633" width="22.2173" height="10.4285" rx="5.21426" fill="#666464"/>
<rect x="55.3914" y="77.7633" width="22.2173" height="10.4285" rx="5.21426" fill="#666464"/>
<rect x="55.3914" y="77.7633" width="22.2173" height="10.4285" rx="5.21426" fill="#666464"/>
<path d="M33.0607 92.3783C33.0607 90.6873 35.0142 89.7447 36.3378 90.797L48.3746 100.366C49.2872 101.091 50.3263 101.641 51.4393 101.988L56.0471 103.425C62.7312 105.509 69.8912 105.509 76.5752 103.425L81.1818 101.989C82.2952 101.642 83.3328 101.087 84.2398 100.354L96.0155 90.8341C97.3278 89.7732 99.284 90.7072 99.284 92.3948V92.3948C99.284 93.0008 99.0101 93.5744 98.5388 93.9554L87.5594 102.831C84.4592 105.337 80.9124 107.234 77.1065 108.42L76.5752 108.586C69.8912 110.67 62.7312 110.67 56.0471 108.586L55.4391 108.396C51.6824 107.225 48.1752 105.368 45.095 102.92L33.8237 93.9596C33.3416 93.5763 33.0607 92.9941 33.0607 92.3783V92.3783Z" fill="#666464"/>
<path d="M33.0607 92.3783C33.0607 90.6873 35.0142 89.7447 36.3378 90.797L48.3746 100.366C49.2872 101.091 50.3263 101.641 51.4393 101.988L56.0471 103.425C62.7312 105.509 69.8912 105.509 76.5752 103.425L81.1818 101.989C82.2952 101.642 83.3328 101.087 84.2398 100.354L96.0155 90.8341C97.3278 89.7732 99.284 90.7072 99.284 92.3948V92.3948C99.284 93.0008 99.0101 93.5744 98.5388 93.9554L87.5594 102.831C84.4592 105.337 80.9124 107.234 77.1065 108.42L76.5752 108.586C69.8912 110.67 62.7312 110.67 56.0471 108.586L55.4391 108.396C51.6824 107.225 48.1752 105.368 45.095 102.92L33.8237 93.9596C33.3416 93.5763 33.0607 92.9941 33.0607 92.3783V92.3783Z" fill="#666464"/>
<path d="M33.0607 92.3783C33.0607 90.6873 35.0142 89.7447 36.3378 90.797L48.3746 100.366C49.2872 101.091 50.3263 101.641 51.4393 101.988L56.0471 103.425C62.7312 105.509 69.8912 105.509 76.5752 103.425L81.1818 101.989C82.2952 101.642 83.3328 101.087 84.2398 100.354L96.0155 90.8341C97.3278 89.7732 99.284 90.7072 99.284 92.3948V92.3948C99.284 93.0008 99.0101 93.5744 98.5388 93.9554L87.5594 102.831C84.4592 105.337 80.9124 107.234 77.1065 108.42L76.5752 108.586C69.8912 110.67 62.7312 110.67 56.0471 108.586L55.4391 108.396C51.6824 107.225 48.1752 105.368 45.095 102.92L33.8237 93.9596C33.3416 93.5763 33.0607 92.9941 33.0607 92.3783V92.3783Z" fill="#666464"/>
</svg>
