<svg width="133" height="130" viewBox="0 0 133 130" fill="none" xmlns="http://www.w3.org/2000/svg">
<circle cx="66.5" cy="65" r="64.1529" fill="#D9D9D9"/>
<rect x="0.93219" y="33.5996" width="61.4443" height="24.711" rx="12.3555" transform="rotate(-30 0.93219 33.5996)" fill="black"/>
<rect width="61.4443" height="24.711" rx="12.3555" transform="matrix(-0.866025 -0.5 -0.5 0.866025 132.068 33.5996)" fill="black"/>
<circle cx="42.1829" cy="61.8329" r="17.6988" transform="rotate(-60 42.1829 61.8329)" fill="#FFDF6F"/>
<circle cx="36.0954" cy="58.3183" r="10.6695" transform="rotate(-60 36.0954 58.3183)" fill="#292929"/>
<circle cx="90.8171" cy="61.8329" r="17.6988" transform="rotate(-60 90.8171 61.8329)" fill="#FFDF6F"/>
<circle cx="84.7295" cy="58.3183" r="10.6695" transform="rotate(-60 84.7295 58.3183)" fill="#292929"/>
<rect x="55.3914" y="77.7633" width="22.2173" height="10.4285" rx="5.21426" fill="#666464"/>
<rect x="55.3914" y="77.7633" width="22.2173" height="10.4285" rx="5.21426" fill="#666464"/>
<rect x="55.3914" y="77.7633" width="22.2173" height="10.4285" rx="5.21426" fill="#666464"/>
<rect x="47.9557" y="104.254" width="35.3976" height="2.75877" rx="1.37938" transform="rotate(-8 47.9557 104.254)" fill="#666464"/>
<rect x="47.9557" y="104.254" width="35.3976" height="2.75877" rx="1.37938" transform="rotate(-8 47.9557 104.254)" fill="#666464"/>
<rect x="47.9557" y="104.254" width="35.3976" height="2.75877" rx="1.37938" transform="rotate(-8 47.9557 104.254)" fill="#666464"/>
</svg>
