<svg width="133" height="130" viewBox="0 0 133 130" fill="none" xmlns="http://www.w3.org/2000/svg">
<circle cx="66.5" cy="65" r="64.1529" fill="#D9D9D9"/>
<circle cx="42.1829" cy="53.5863" r="17.6988" transform="rotate(-60 42.1829 53.5863)" fill="#FFDF6F"/>
<circle cx="44.5724" cy="59.1912" r="10.6695" transform="rotate(-60 44.5724 59.1912)" fill="#292929"/>
<circle cx="17.6988" cy="17.6988" r="17.6988" transform="matrix(-0.5 -0.866025 -0.866025 0.5 114.854 60.0645)" fill="#FFDF6F"/>
<circle cx="10.6695" cy="10.6695" r="10.6695" transform="matrix(-0.5 -0.866025 -0.866025 0.5 102.862 63.0965)" fill="#292929"/>
<rect x="0.93219" y="33.5996" width="61.4443" height="24.711" rx="12.3555" transform="rotate(-30 0.93219 33.5996)" fill="black"/>
<rect width="61.4443" height="24.711" rx="12.3555" transform="matrix(-0.866025 -0.5 -0.5 0.866025 132.068 33.5996)" fill="black"/>
<rect x="55.2513" y="72.549" width="22.2173" height="10.4285" rx="5.21426" fill="#666464"/>
<rect x="55.2513" y="72.549" width="22.2173" height="10.4285" rx="5.21426" fill="#666464"/>
<rect x="55.2513" y="72.549" width="22.2173" height="10.4285" rx="5.21426" fill="#666464"/>
<rect x="38.2293" y="93.815" width="56.5414" height="3.40422" rx="1.70211" fill="#666464"/>
<rect x="38.2293" y="93.815" width="56.5414" height="3.40422" rx="1.70211" fill="#666464"/>
<rect x="38.2293" y="93.815" width="56.5414" height="3.40422" rx="1.70211" fill="#666464"/>
</svg>
