<svg width="129" height="130" viewBox="0 0 129 130" fill="none" xmlns="http://www.w3.org/2000/svg">
<circle cx="64.5" cy="65" r="64.1529" fill="#D9D9D9"/>
<rect x="53.3914" y="63.265" width="22.2173" height="10.4285" rx="5.21426" fill="#666464"/>
<rect x="53.3914" y="63.265" width="22.2173" height="10.4285" rx="5.21426" fill="#666464"/>
<rect x="53.3914" y="63.265" width="22.2173" height="10.4285" rx="5.21426" fill="#666464"/>
<rect x="0.993896" y="16.5833" width="61.4443" height="24.711" rx="12.3555" fill="black"/>
<rect width="61.4443" height="24.711" rx="12.3555" transform="matrix(-1 8.74228e-08 8.74228e-08 1 128.006 16.5833)" fill="black"/>
<path d="M25.2009 64.3507C25.0179 63.6676 25.1753 62.938 25.6238 62.3911L29.6123 57.5278C33.5212 52.7615 40.0241 51.0009 45.8037 53.1442L51.8116 55.3722C52.481 55.6205 52.9885 56.1778 53.1733 56.8674V56.8674C53.6361 58.5947 51.9565 60.1245 50.2798 59.5027L41.9954 56.4304C39.331 55.4424 36.3332 56.254 34.5312 58.4512L29.0176 65.1744C27.8845 66.556 25.6634 66.0767 25.2009 64.3507V64.3507Z" fill="#3C3C3C"/>
<path d="M104.684 64.3507C104.867 63.6676 104.71 62.938 104.261 62.3911L100.273 57.5278C96.3641 52.7615 89.8612 51.0009 84.0815 53.1442L78.0737 55.3722C77.4043 55.6205 76.8967 56.1778 76.7119 56.8674V56.8674C76.2491 58.5947 77.9288 60.1245 79.6054 59.5027L87.8899 56.4304C90.5542 55.4424 93.552 56.254 95.354 58.4512L100.868 65.1744C102.001 66.556 104.222 66.0767 104.684 64.3507V64.3507Z" fill="#3C3C3C"/>
<ellipse cx="64.4702" cy="95.1359" rx="25.0667" ry="18.0576" fill="white"/>
<rect x="38.5059" y="77.0783" width="53.1227" height="19.3844" fill="#D9D9D9"/>
<rect x="9.3595" y="77.0783" width="8.05578" height="3.269" rx="1.6345" transform="rotate(-45 9.3595 77.0783)" fill="#FFF281"/>
<rect x="15.7709" y="79.3898" width="8.05578" height="3.269" rx="1.6345" transform="rotate(-45 15.7709 79.3898)" fill="#FFF281"/>
<rect width="8.05578" height="3.269" rx="1.6345" transform="matrix(-0.707107 -0.707107 -0.707107 0.707107 114.858 74.7667)" fill="#FFF281"/>
<rect width="8.05578" height="3.269" rx="1.6345" transform="matrix(-0.707107 -0.707107 -0.707107 0.707107 108.447 77.0783)" fill="#FFF281"/>
</svg>
